<?xml version="1.0" encoding="utf-8"?>
<svg version="1.1" id="Layer_1"
xmlns="http://www.w3.org/2000/svg"
xmlns:xlink="http://www.w3.org/1999/xlink"
xmlns:author="http://www.sothink.com"
width="308px" height="356px"
xml:space="preserve">
<g id="PathID_30" transform="matrix(0.0352941, 0, 0, 0.0352941, 48, 37.8)">
<path style="fill:#000000;fill-opacity:1" d="M73.5 0l0 -140.5l140.5 0l0 140.5l-140.5 0" />
</g>
<g id="PathID_31" transform="matrix(0.0352941, 0, 0, 0.0352941, 96, 37.8)">
<path style="fill:#000000;fill-opacity:1" d="M100.5 -390.5l0 -140.5l140.5 0l0 140.5l-140.5 0M100.5 0l0 -140.5l140.5 0l0 140.5l-140.5 0" />
</g>
<g id="PathID_32" transform="matrix(0.0352941, 0, 0, 0.0352941, 144, 37.8)">
<path style="fill:#000000;fill-opacity:1" d="M74.5 0l0 -733l543.5 0l0 124l-395.5 0l0 162.5l368 0l0 123.5l-368 0l0 199.5l409.5 0l0 123.5l-557.5 0" />
</g>
<g id="PathID_33" transform="matrix(0.0352941, 0, 0, 0.0352941, 192, 37.8)">
<path style="fill:#000000;fill-opacity:1" d="M75.5 0l0 -733l502.5 0l0 124l-354.5 0l0 173.5l306 0l0 124l-306 0l0 311.5l-148 0" />
</g>
<g id="PathID_34" transform="matrix(0.0352941, 0, 0, 0.0352941, 240, 37.8)">
<path style="fill:#000000;fill-opacity:1" d="M178.5 -369l-127.5 -23q21.5 -77 74 -114q52.5 -37 156 -37q94 0 140 22.5q46 22 65 56.5q18.5 34 18.5 125.5l-1.5 164q0 70 7 103.5q6.5 33 25 71l-139 0q-5.5 -14 -13.5 -41.5q-3.5 -12.5 -5 -16.5q-36 35 -77 52.5q-41 17.5 -87.5 17.5q-82 0 -129 -44.5q-47.5 -44.5 -47.5 -112.5q0 -45 21.5 -80q21.5 -35.5 60.5 -54q38.5 -19 111.5 -33q98.5 -18.5 136.5 -34.5l0 -14q0 -40.5 -20 -57.5q-20 -17.5 -75.5 -17.5q-37.5 0 -58.5 15q-21 14.5 -34 51.5l0 0M366.5 -255q-27 9 -85.5 21.5q-58.5 12.5 -76.5 24.5q-27.5 19.5 -27.5 49.5q0 29.5 22 51q22 21.5 56 21.5q38 0 72.5 -25q25.5 -19 33.5 -46.5q5.5 -18 5.5 -68.5l0 -28" />
</g>
<g id="PathID_35" transform="matrix(0.0352941, 0, 0, 0.0352941, 0, 84)">
<path style="fill:#000000;fill-opacity:1" d="M67.5 0l0 -733l140.5 0l0 264q65 -74 154 -74q97 0 160.5 70.5q63.5 70 63.5 201.5q0 136 -64.5 209.5q-65 73.5 -157.5 73.5q-45.5 0 -89.5 -22.5q-44.5 -23 -76.5 -67.5l0 78l-130.5 0M207 -277q0 82.5 26 122q36.5 56 97 56q46.5 0 79.5 -39.5q32.5 -40 32.5 -125.5q0 -91 -33 -131q-33 -40.5 -84.5 -40.5q-50.5 0 -84 39.5q-33.5 39 -33.5 119l0 0" />
</g>
<g id="PathID_36" transform="matrix(0.0352941, 0, 0, 0.0352941, 48, 84)">
<path style="fill:#000000;fill-opacity:1" d="M536.5 -374l-138.5 25q-7 -41.5 -31.5 -62.5q-25 -21 -64.5 -21q-52.5 0 -83.5 36.5q-31.5 36 -31.5 121q0 94.5 32 133.5q31.5 39 85 39q40 0 65.5 -22.5q25.5 -23 36 -78.5l138 23.5q-21.5 95 -82.5 143.5q-61 48.5 -163.5 48.5q-116.5 0 -185.5 -73.5q-69.5 -73.5 -69.5 -203.5q0 -131.5 69.5 -204.5q69.5 -73.5 188 -73.5q97 0 154.5 42q57 41.5 82 127l0 0" />
</g>
<g id="PathID_37" transform="matrix(0.0352941, 0, 0, 0.0352941, 96, 84)">
<path style="fill:#000000;fill-opacity:1" d="M560.5 0l-130.5 0l0 -78q-32.5 45.5 -76.5 68q-44.5 22 -89.5 22q-91.5 0 -156.5 -73.5q-65.5 -74 -65.5 -206q0 -135 63.5 -205q63.5 -70.5 160.5 -70.5q89 0 154 74l0 -264l140.5 0l0 733M185.5 -277q0 85 23.5 123q34 55 95 55q48.5 0 82.5 -41q34 -41.5 34 -123.5q0 -91.5 -33 -131.5q-33 -40.5 -84.5 -40.5q-50 0 -83.5 40q-34 39.5 -34 118.5l0 0" />
</g>
<g id="PathID_38" transform="matrix(0.0352941, 0, 0, 0.0352941, 144, 84)">
<path style="fill:#000000;fill-opacity:1" d="M381 -169l140 23.5q-27 77 -85 117.5q-58.5 40 -146 40q-138.5 0 -205 -90.5q-52.5 -72.5 -52.5 -183q0 -132 69 -206.5q69 -75 174.5 -75q118.5 0 187 78.5q68.5 78 65.5 239.5l-352 0q1.5 62.5 34 97.5q32.5 34.5 81 34.5q33 0 55.5 -18q22.5 -18 34 -58l0 0M389 -311q-1.5 -61 -31.5 -92.5q-30 -32 -73 -32q-46 0 -76 33.5q-30 33.5 -29.5 91l210 0" />
</g>
<g id="PathID_39" transform="matrix(0.0352941, 0, 0, 0.0352941, 192, 84)">
<path style="fill:#000000;fill-opacity:1" d="M12 -531l78 0l0 -40q0 -67 14.5 -100q14 -33 52.5 -53.5q38 -21 96.5 -21q60 0 117.5 18l-19 98q-33.5 -8 -64.5 -8q-30.5 0 -43.5 14.5q-13.5 14 -13.5 54.5l0 37.5l105 0l0 110.5l-105 0l0 420.5l-140.5 0l0 -420.5l-78 0l0 -110.5" />
</g>
<g id="PathID_40" transform="matrix(0.0352941, 0, 0, 0.0352941, 240, 84)">
<path style="fill:#000000;fill-opacity:1" d="M60.5 35l160.5 19.5q4 28 18.5 38.5q20 15 63 15q55 0 82.5 -16.5q18.5 -11 28 -35.5q6.5 -17.5 6.5 -64.5l0 -77.5q-63 86 -159 86q-107 0 -169.5 -90.5q-49 -71.5 -49 -178q0 -133.5 64.5 -204q64 -70.5 159.5 -70.5q98.5 0 162.5 86.5l0 -74.5l131.5 0l0 476.5q0 94 -15.5 140.5q-15.5 46.5 -43.5 73q-28 26.5 -74.5 41.5q-47 15 -118.5 15q-135 0 -191.5 -46q-56.5 -46.5 -56.5 -117.5q0 -7 0.5 -17l0 0M186 -276.5q0 84.5 33 124q32.5 39 80.5 39q51.5 0 87 -40q35.5 -40.5 35.5 -119.5q0 -82.5 -34 -122.5q-34 -40 -86 -40q-50.5 0 -83 39.5q-33 39 -33 119.5l0 0" />
</g>
<g id="PathID_41" transform="matrix(0.0352941, 0, 0, 0.0352941, 0, 132)">
<path style="fill:#000000;fill-opacity:1" d="M213.5 -733l0 269.5q68 -79.5 162.5 -79.5q48.5 0 87.5 18q39 18 59 46q19.5 28 27 62q7 34 7 105.5l0 311.5l-140.5 0l0 -280.5q0 -83.5 -8 -106q-8 -22.5 -28 -35.5q-20.5 -13.5 -51 -13.5q-35 0 -62.5 17q-27.5 17 -40 51.5q-13 34 -13 101l0 266l-140.5 0l0 -733l140.5 0" />
</g>
<g id="PathID_42" transform="matrix(0.0352941, 0, 0, 0.0352941, 48, 132)">
<path style="fill:#000000;fill-opacity:1" d="M73.5 -603l0 -130l140.5 0l0 130l-140.5 0M73.5 0l0 -531l140.5 0l0 531l-140.5 0" />
</g>
<g id="PathID_43" transform="matrix(0.0352941, 0, 0, 0.0352941, 96, 132)">
<path style="fill:#000000;fill-opacity:1" d="M68.5 0l0 -733l140.5 0l0 389l164.5 -187l173 0l-181.5 194l194.5 337l-151.5 0l-133.5 -238.5l-65.5 68.5l0 170l-140.5 0" />
</g>
<g id="PathID_44" transform="matrix(0.0352941, 0, 0, 0.0352941, 144, 132)">
<path style="fill:#000000;fill-opacity:1" d="M73.5 0l0 -733l140.5 0l0 733l-140.5 0" />
</g>
<g id="PathID_45" transform="matrix(0.0352941, 0, 0, 0.0352941, 192, 132)">
<path style="fill:#000000;fill-opacity:1" d="M63 -531l129.5 0l0 72.5q69.5 -84.5 165.5 -84.5q51 0 88.5 21q37.5 21 61.5 63.5q35 -42.5 75.5 -63.5q40.5 -21 86.5 -21q58.5 0 99 24q40.5 23.5 60.5 69.5q14.5 34 14.5 110l0 339.5l-140.5 0l0 -303.5q0 -79 -14.5 -102q-19.5 -30 -60 -30q-29.5 0 -55.5 18q-26 18 -37.5 53q-11.5 34.5 -11.5 109.5l0 255l-140.5 0l0 -291q0 -77.5 -7.5 -100q-7.5 -22.5 -23 -33.5q-16 -11 -43 -11q-32.5 0 -58.5 17.5q-26 17.5 -37 50.5q-11.5 33 -11.5 109.5l0 258l-140.5 0l0 -531" />
</g>
<g id="PathID_46" transform="matrix(0.0352941, 0, 0, 0.0352941, 240, 132)">
<path style="fill:#000000;fill-opacity:1" d="M556.5 0l-140.5 0l0 -271q0 -86 -9 -111q-9 -25.5 -29 -39.5q-20.5 -14 -49 -14q-36.5 0 -65.5 20q-29 20 -39.5 53q-11 33 -11 122l0 240.5l-140.5 0l0 -531l130.5 0l0 78q69.5 -90 175 -90q46.5 0 85 17q38.5 16.5 58.5 42.5q19.5 26 27.5 59q7.5 33 7.5 94.5l0 330" />
</g>
<g id="PathID_47" transform="matrix(0.0352941, 0, 0, 0.0352941, 0, 180)">
<path style="fill:#000000;fill-opacity:1" d="M41 -273q0 -70 34.5 -135.5q34.5 -65.5 98 -100q63 -34.5 141 -34.5q120.5 0 197.5 78.5q77 78 77 197.5q0 120.5 -77.5 200q-78 79 -196 79q-73 0 -139 -33q-66.5 -33 -101 -96.5q-34.5 -64 -34.5 -155.5l0 0M185 -265.5q0 79 37.5 121q37.5 42 92.5 42q55 0 92.5 -42q37 -42 37 -122q0 -78 -37 -120q-37.5 -42 -92.5 -42q-55 0 -92.5 42q-37.5 42 -37.5 121l0 0" />
</g>
<g id="PathID_48" transform="matrix(0.0352941, 0, 0, 0.0352941, 48, 180)">
<path style="fill:#000000;fill-opacity:1" d="M69.5 -531l131 0l0 78q25.5 -40 69 -65q43.5 -25 96.5 -25q92.5 0 157 72.5q64.5 72.5 64.5 202q0 133 -65 207q-65 73.5 -157.5 73.5q-44 0 -79.5 -17.5q-36 -17.5 -75.5 -60l0 267.5l-140.5 0l0 -733M208.5 -274.5q0 89.5 35.5 132.5q35.5 42.5 86.5 42.5q49 0 81.5 -39q32.5 -39.5 32.5 -129q0 -83.5 -33.5 -124q-33.5 -40.5 -83 -40.5q-51.5 0 -85.5 40q-34 39.5 -34 117.5l0 0" />
</g>
<g id="PathID_49" transform="matrix(0.0352941, 0, 0, 0.0352941, 96, 180)">
<path style="fill:#000000;fill-opacity:1" d="M420.5 202l0 -267q-27.5 35.5 -68.5 56.5q-41 20.5 -88.5 20.5q-90.5 0 -149 -68q-69 -79.5 -69 -215.5q0 -128 65 -199.5q64.5 -72 160.5 -72q53 0 92 22.5q38.5 22.5 68.5 68l0 -78.5l129.5 0l0 733l-140.5 0M425 -272q0 -81.5 -33 -121q-33.5 -40 -83.5 -40q-51 0 -85 40.5q-34.5 40.5 -34.5 128.5q0 87.5 33 126.5q33 38.5 81.5 38.5q48.5 0 85 -43.5q36.5 -43.5 36.5 -129.5l0 0" />
</g>
<g id="PathID_50" transform="matrix(0.0352941, 0, 0, 0.0352941, 144, 180)">
<path style="fill:#000000;fill-opacity:1" d="M208 0l-140.5 0l0 -531l130.5 0l0 75.5q33.5 -53.5 60.5 -70.5q26.5 -17 60.5 -17q48 0 92.5 26.5l-43.5 122.5q-35.5 -23 -66 -23q-29.5 0 -50 16.5q-20.5 16 -32 58.5q-12 42.5 -12 178l0 164" />
</g>
<g id="PathID_51" transform="matrix(0.0352941, 0, 0, 0.0352941, 192, 180)">
<path style="fill:#000000;fill-opacity:1" d="M24 -151.5l141 -21.5q9 41 36.5 62.5q27.5 21 77 21q54.5 0 82 -20q18.5 -14 18.5 -37.5q0 -16 -10 -26.5q-10.5 -10 -47 -18.5q-170 -37.5 -215.5 -68.5q-63 -43 -63 -119.5q0 -69 54.5 -116q54.5 -47 169 -47q109 0 162 35.5q53 35.5 73 105l-132.5 24.5q-8.5 -31 -32 -47.5q-24 -16.5 -68 -16.5q-55.5 0 -79.5 15.5q-16 11 -16 28.5q0 15 14 25.5q19 14 131.5 39.5q112 25.5 156.5 62.5q44 37.5 44 104.5q0 73 -61 125.5q-61 52.5 -180.5 52.5q-108.5 0 -171.5 -44q-63.5 -44 -83 -119.5l0 0" />
</g>
<g id="PathID_52" transform="matrix(0.0352941, 0, 0, 0.0352941, 240, 180)">
<path style="fill:#000000;fill-opacity:1" d="M317 -531l0 112l-96 0l0 214q0 65 3 76q2.5 10.5 12.5 17.5q9.5 7 23.5 7q19.5 0 56.5 -13.5l12 109q-49 21 -111 21q-38 0 -68.5 -12.5q-30.5 -13 -44.5 -33q-14.5 -20.5 -20 -55q-4.5 -24.5 -4.5 -99l0 -231.5l-64.5 0l0 -112l64.5 0l0 -105.5l141 -82l0 187.5l96 0" />
</g>
<g id="PathID_53" transform="matrix(0.0352941, 0, 0, 0.0352941, 0, 228)">
<path style="fill:#000000;fill-opacity:1" d="M423 0l0 -79.5q-29 42.5 -76 67q-47.5 24.5 -100 24.5q-53.5 0 -96 -23.5q-42.5 -23.5 -61.5 -66q-19 -42.5 -19 -117.5l0 -336l140.5 0l0 244q0 112 8 137.5q7.5 25 28 40q20.5 14.5 52 14.5q36 0 64.5 -19.5q28.5 -20 39 -49q10.5 -29.5 10.5 -143.5l0 -224l140.5 0l0 531l-130.5 0" />
</g>
<g id="PathID_54" transform="matrix(0.0352941, 0, 0, 0.0352941, 48, 228)">
<path style="fill:#000000;fill-opacity:1" d="M172.5 0l-168 -531l136.5 0l99.5 348l91.5 -348l135.5 0l88.5 348l101.5 -348l138.5 0l-170.5 531l-135 0l-91.5 -341.5l-90 341.5l-136.5 0" />
</g>
<g id="PathID_55" transform="matrix(0.0352941, 0, 0, 0.0352941, 96, 228)">
<path style="fill:#000000;fill-opacity:1" d="M6 0l191.5 -273.5l-183.5 -257.5l171.5 0l94 146l99 -146l165 0l-180 251.5l196.5 279.5l-172.5 0l-108 -164.5l-109 164.5l-164.5 0" />
</g>
</svg>
